<svg id="sw-js-blob-svg" viewBox="0 0 100 100" xmlns="http://www.w3.org/2000/svg">
    <defs>
        <linearGradient id="sw-gradient" x1="0" x2="1" y1="1" y2="0">
            <stop id="stop1" stop-color="rgba(248, 117, 55, 1)" offset="0%"></stop>
            <stop id="stop2" stop-color="rgba(251, 168, 31, 1)" offset="100%"></stop>
        </linearGradient>
    </defs>
    <path fill="url(#sw-gradient)"
        d="M25.4,-30.6C30.5,-26,30.5,-15.7,31.4,-6.2C32.3,3.3,34,12,31.2,19C28.3,26.1,20.9,31.5,12.5,34.8C4,38.1,-5.3,39.3,-13.2,36.4C-21.1,33.5,-27.6,26.6,-32.6,18.5C-37.6,10.4,-41.2,1.3,-39.8,-7C-38.4,-15.3,-31.8,-22.8,-24.4,-27C-16.9,-31.2,-8.4,-32.2,0.9,-33.2C10.2,-34.2,20.3,-35.3,25.4,-30.6Z"
        width="100%" height="100%" transform="translate(50 50)" stroke-width="0" style="transition: 0.3s;"></path>
</svg>
<svg id="Layer_1" x="0px" y="0px" viewBox="0 0 100 100" style="enable-background:new 0 0 512 512;">
    <path
        d="M25.4,-30.6C30.5,-26,30.5,-15.7,31.4,-6.2C32.3,3.3,34,12,31.2,19C28.3,26.1,20.9,31.5,12.5,34.8C4,38.1,-5.3,39.3,-13.2,36.4C-21.1,33.5,-27.6,26.6,-32.6,18.5C-37.6,10.4,-41.2,1.3,-39.8,-7C-38.4,-15.3,-31.8,-22.8,-24.4,-27C-16.9,-31.2,-8.4,-32.2,0.9,-33.2C10.2,-34.2,20.3,-35.3,25.4,-30.6Z">
    </path>
</svg>